<svg width="882" height="144" viewBox="0 0 882 144" fill="none" xmlns="http://www.w3.org/2000/svg">
    <path d="M72.3396 -3.40264e-05H96.0343L164.485 117.737H63.5876L129.292 97.956L72.3396 -3.40264e-05Z"
          fill="#033175"/>
    <path d="M164.519 122.19L152.655 142.579H15.7188L65.8374 56.4033L50.5161 122.19H164.519Z" fill="#033175"/>
    <path d="M119 89.1486L68.468 43.0126L11.8307 140.361L0 119.989L68.468 2.23392L119 89.1486Z" fill="#033175"/>
    <path d="M231.01 34.7618L223.163 15.6098L215.318 34.7618H231.01ZM217.342 0.000466164H229.323L254.632 59.4805H241.05L235.65 46.2338H210.678L205.278 59.4805H192.032L217.342 0.000466164Z"
          fill="#033175"/>
    <path d="M269.055 0.424467H281.037L308.709 36.7845V0.424467H321.534V59.4805H310.481L281.881 21.9365V59.4805H269.055V0.424467Z"
          fill="#033175"/>
    <path d="M341.017 0.424467H354.009V26.2365L377.971 0.424467H393.663L369.619 25.4818L394.76 59.4805H379.153L360.845 34.3378L354.009 41.4271V59.4805H341.017V0.424467Z"
          fill="#033175"/>
    <path d="M440.15 34.7618L432.305 15.6098L424.458 34.7618H440.15ZM426.482 0.000466164H438.464L463.773 59.4805H450.19L444.79 46.2338H419.818L414.42 59.4805H401.172L426.482 0.000466164Z"
          fill="#033175"/>
    <path d="M504.351 29.1093C510.679 29.1093 514.307 25.732 514.307 20.756V20.584C514.307 15.0186 510.427 12.1506 504.097 12.1506H491.189V29.1093H504.351ZM478.196 0.423979H505.195C512.704 0.423979 518.525 2.53064 522.405 6.41198C525.696 9.70398 527.468 14.344 527.468 19.912V20.0813C527.468 29.616 522.323 35.6026 514.813 38.3893L529.239 59.48H514.052L501.397 40.5813H491.189V59.48H478.196V0.423979Z"
          fill="#033175"/>
    <path d="M578.425 34.7616L570.578 15.6096L562.732 34.7616H578.425ZM564.756 0.000222023H576.737L602.046 59.4802H588.464L583.064 46.2336H558.093L552.693 59.4802H539.448L564.756 0.000222023Z"
          fill="#033175"/>
    <path d="M664.532 48.0885C670.271 48.0885 673.728 46.0671 673.728 41.6805V41.5085C673.728 37.5431 670.776 35.0965 664.112 35.0965H649.093V48.0885H664.532ZM661.072 24.2965C666.811 24.2965 670.439 22.4431 670.439 18.0565V17.8858C670.439 14.0058 667.401 11.8111 661.919 11.8111H649.093V24.2965H661.072ZM636.437 0.424467H663.859C670.608 0.424467 675.924 2.27914 679.297 5.65247C681.997 8.35114 683.347 11.6445 683.347 15.6911V15.8631C683.347 22.5285 679.804 26.2365 675.584 28.6031C682.42 31.2165 686.637 35.1818 686.637 43.1151V43.2818C686.637 54.0805 677.864 59.4805 664.532 59.4805H636.437V0.424467Z"
          fill="#033175"/>
    <path d="M701.904 16.3658H714.729V59.4805H701.904V16.3658ZM701.568 0.000486509H715.066V11.3912H701.568V0.000486509Z"
          fill="#033175"/>
    <path d="M733.467 0.424467H746.459V47.6685H775.904V59.4805H733.467V0.424467Z" fill="#033175"/>
    <path d="M790.245 16.3658H803.069V59.4805H790.245V16.3658ZM789.907 0.000486509H803.406V11.3912H789.907V0.000486509Z"
          fill="#033175"/>
    <path d="M821.809 0.424467H835.815L851.339 25.3965L866.861 0.424467H880.867V59.4805H867.957V20.9231L851.339 46.1485H851L834.548 21.1765V59.4805H821.809V0.424467Z"
          fill="#033175"/>
    <path d="M190.426 119.614V103.474H200.014V119.224C200.014 129.36 205.239 134.818 213.814 134.818C222.312 134.818 227.535 129.674 227.535 119.614V103.474H237.126V119.148C237.126 135.44 227.926 143.626 213.658 143.626C199.468 143.626 190.426 135.44 190.426 119.614Z"
          fill="#7E8283"/>
    <path d="M263.637 88.194H272.526L301.761 125.927V88.194H311.195V142.77H303.166L273.07 103.945V142.77H263.637V88.194Z"
          fill="#7E8283"/>
    <path d="M338.018 103.474H347.452V142.77H338.018V103.474ZM337.629 88.1938H347.764V97.1565H337.629V88.1938Z"
          fill="#7E8283"/>
    <path d="M227.212 88.1938H237.126V97.1565H227.212V88.1938Z" fill="#7E8283"/>
    <path d="M190.426 88.1938H200.341V97.1565H190.426V88.1938Z" fill="#7E8283"/>
    <path d="M369.518 88.194H380.122L396.571 130.141L412.942 88.194H423.313L400.626 143.161H392.205L369.518 88.194Z"
          fill="#7E8283"/>
    <path d="M446.006 88.194H486.47V96.7714H455.597V110.958H482.963V119.535H455.597V134.193H486.861V142.77H446.006V88.194Z"
          fill="#7E8283"/>
    <path d="M535.201 115.246C542.062 115.246 546.428 111.663 546.428 106.129V105.969C546.428 100.122 542.217 96.926 535.122 96.926H521.169V115.246H535.201ZM511.577 88.194H535.901C542.762 88.194 548.142 90.222 551.65 93.654C554.536 96.614 556.173 100.667 556.173 105.427V105.582C556.173 114.546 550.793 119.926 543.153 122.109L557.888 142.77H546.582L533.173 123.747H521.169V142.77H511.577V88.194Z"
          fill="#7E8283"/>
    <path d="M577.615 134.819L583.386 127.956C588.609 132.479 593.831 135.05 600.614 135.05C606.541 135.05 610.283 132.324 610.283 128.191V128.036C610.283 124.138 608.098 122.03 597.965 119.694C586.347 116.884 579.799 113.454 579.799 103.399V103.243C579.799 93.8857 587.594 87.4164 598.433 87.4164C606.385 87.4164 612.699 89.8324 618.234 94.2764L613.087 101.524C608.177 97.863 603.265 95.9137 598.275 95.9137C592.663 95.9137 589.387 98.799 589.387 102.387V102.542C589.387 106.75 591.882 108.624 602.33 111.119C613.87 113.923 619.871 118.056 619.871 127.099V127.255C619.871 137.468 611.841 143.551 600.381 143.551C592.038 143.551 584.165 140.666 577.615 134.819Z"
          fill="#7E8283"/>
    <path d="M643.968 103.474H653.4V142.77H643.968V103.474ZM643.578 88.1938H653.714V97.1565H643.578V88.1938Z"
          fill="#7E8283"/>
    <path d="M693.555 97.0807H676.247V88.194H720.53V97.0807H703.222V142.77H693.555V97.0807Z" fill="#7E8283"/>
    <path d="M744 88.194H784.464V96.7714H753.591V110.958H780.956V119.535H753.591V134.193H784.855V142.77H744V88.194Z"
          fill="#7E8283"/>
    <path d="M805.907 134.819L811.677 127.956C816.901 132.479 822.124 135.05 828.907 135.05C834.832 135.05 838.575 132.324 838.575 128.191V128.036C838.575 124.138 836.391 122.03 826.257 119.694C814.64 116.884 808.092 113.454 808.092 103.399V103.243C808.092 93.8857 815.887 87.4164 826.724 87.4164C834.675 87.4164 840.992 89.8324 846.528 94.2764L841.38 101.524C836.469 97.863 831.559 95.9137 826.569 95.9137C820.953 95.9137 817.68 98.799 817.68 102.387V102.542C817.68 106.75 820.175 108.624 830.623 111.119C842.159 113.923 848.164 118.056 848.164 127.099V127.255C848.164 137.468 840.133 143.551 828.673 143.551C820.332 143.551 812.457 140.666 805.907 134.819Z"
          fill="#7E8283"/>
    <path d="M872.26 103.474H881.696V142.77H872.26V103.474ZM871.872 88.1938H882.006V97.1565H871.872V88.1938Z"
          fill="#7E8283"/>
    <path d="M71.0045 53.2318L58.3325 113.777L117.243 94.8078L71.0045 53.2318Z" fill="#7E8283"/>
</svg>
